<svg xmlns="http://www.w3.org/2000/svg" xmlns:xlink="http://www.w3.org/1999/xlink" viewBox="0,0,256,256" width="32px" height="32px"><g fill="#f6ff00" fill-rule="nonzero" stroke="none" stroke-width="1" stroke-linecap="butt" stroke-linejoin="miter" stroke-miterlimit="10" stroke-dasharray="" stroke-dashoffset="0" font-family="none" font-weight="none" font-size="none" text-anchor="none" style="mix-blend-mode: normal"><g transform="scale(8,8)"><path d="M5,5v22h22v-22zM7,7h18v18h-18zM20.24414,15c-1.425,0 -2.3457,0.91214 -2.3457,2.11914c0,1.311 0.76873,1.93764 1.92773,2.43164l0.40039,0.17188c0.732,0.323 1.16797,0.5115 1.16797,1.0625c0,0.465 -0.4268,0.79883 -1.0918,0.79883c-0.788,0 -1.23613,-0.41752 -1.57812,-0.97852l-1.31055,0.75c0.465,0.931 1.43378,1.64453 2.92578,1.64453c1.52,0 2.66016,-0.78842 2.66016,-2.23242c0,-1.349 -0.76967,-1.94834 -2.13867,-2.52734l-0.39844,-0.17187c-0.693,-0.304 -0.98828,-0.50352 -0.98828,-0.97852c0,-0.39 0.29453,-0.69336 0.76953,-0.69336c0.466,0 0.75916,0.19936 1.03516,0.69336l1.25586,-0.80664c-0.532,-0.931 -1.26502,-1.2832 -2.29102,-1.2832zM14.39453,15.0957v5.46289c0,0.798 -0.34223,1.00586 -0.86523,1.00586c-0.551,0 -0.78816,-0.37917 -1.03516,-0.82617l-1.31055,0.78906c0.38,0.808 1.12911,1.47266 2.41211,1.47266c1.425,0 2.4043,-0.76083 2.4043,-2.42383v-5.48047z"></path></g></g></svg>